Coordinates
version=1
nRows=16
nColumns=63
inDegrees=yes

Units are S.I. units (second, meters, Newtons, ...)
If the header above contains a line with 'inDegrees', this indicates whether rotational values are in degrees (yes) or radians (no).

endheader
time	pelvis_tilt	pelvis_list	pelvis_rotation	pelvis_tx	pelvis_ty	pelvis_tz	hip_flexion_r	hip_adduction_r	hip_rotation_r	knee_angle_r	knee_angle_r_beta	ankle_angle_r	subtalar_angle_r	mtp_angle_r	hip_flexion_l	hip_adduction_l	hip_rotation_l	knee_angle_l	knee_angle_l_beta	ankle_angle_l	subtalar_angle_l	mtp_angle_l	L5_S1_Flex_Ext	L5_S1_Lat_Bending	L5_S1_axial_rotation	L4_L5_Flex_Ext	L4_L5_Lat_Bending	L4_L5_axial_rotation	L3_L4_Flex_Ext	L3_L4_Lat_Bending	L3_L4_axial_rotation	L2_L3_Flex_Ext	L2_L3_Lat_Bending	L2_L3_axial_rotation	L1_L2_Flex_Ext	L1_L2_Lat_Bending	L1_L2_axial_rotation	L1_T12_Flex_Ext	L1_T12_Lat_Bending	L1_T12_axial_rotation	Abs_r3	Abs_r2	Abs_r1	Abs_t1	Abs_t2	neck_flexion	neck_bending	neck_rotation	arm_flex_r	arm_add_r	arm_rot_r	elbow_flex_r	pro_sup_r	wrist_flex_r	wrist_dev_r	arm_flex_l	arm_add_l	arm_rot_l	elbow_flex_l	pro_sup_l	wrist_flex_l	wrist_dev_l
0.000000	1.776964	-7.020953	91.504572	0.251360	1.054920	0.391765	-4.800229	-0.292610	3.951847	9.995538	0.174455	33.256189	-0.893839	0.000000	-6.916624	-2.136379	0.122259	4.617176	0.080585	34.911266	3.087731	0.000000	-0.115660	0.018270	0.035687	-0.214792	0.024299	0.037917	-0.190017	0.044422	0.037917	-0.132187	0.044422	0.031226	-0.107402	0.037257	0.028996	-0.066088	0.028301	0.026765	-0.826145	0.206677	0.198481	0.000000	0.000000	23.726705	0.103560	-9.944904	11.540433	-6.081148	57.098313	45.006319	60.380908	6.455282	11.190380	8.920951	-23.803422	47.086017	54.315866	89.446547	3.635633	-10.391242
0.016949	1.712912	-6.915543	92.209024	0.252061	1.054508	0.390893	-5.218686	-0.091726	4.201356	9.611946	0.167760	32.532473	-2.619043	0.000000	-7.115957	-2.263321	0.431494	4.245494	0.074098	35.271412	3.987611	0.000000	-0.116918	-0.011805	-0.090363	-0.217128	-0.015701	-0.096010	-0.192084	-0.028703	-0.096010	-0.133625	-0.028703	-0.079067	-0.108570	-0.024073	-0.073420	-0.066807	-0.018286	-0.067772	-0.835132	-0.133540	-0.502570	0.000000	0.000000	23.709902	0.287971	-10.039895	11.845069	-5.515502	57.160147	44.515475	60.604092	7.819653	12.109177	8.103864	-24.642649	46.066962	55.146137	88.887809	8.095810	-8.103293
0.033898	1.655063	-6.814012	92.735935	0.252570	1.054143	0.389941	-5.577501	0.055682	4.443470	9.314787	0.162574	31.956205	-4.039555	0.000000	-7.332971	-2.345324	0.723757	3.916916	0.068363	35.521129	4.604536	0.000000	-0.117562	-0.036450	-0.199549	-0.218325	-0.048479	-0.212021	-0.193143	-0.088625	-0.212021	-0.134362	-0.088625	-0.174606	-0.109168	-0.074329	-0.162134	-0.067175	-0.056461	-0.149662	-0.839736	-0.412331	-1.109833	0.000000	0.000000	23.704284	0.506387	-10.074082	12.180830	-5.051935	57.515241	44.081559	60.532704	8.930927	12.804384	7.282319	-25.305599	45.080972	55.839756	88.205256	11.949142	-6.099363
0.050847	1.603127	-6.717770	93.103551	0.252902	1.053819	0.388935	-5.878500	0.154798	4.675657	9.098342	0.158796	31.515179	-5.180116	0.000000	-7.560891	-2.387120	0.998477	3.631412	0.063380	35.673146	4.968325	0.000000	-0.117625	-0.056147	-0.293089	-0.218441	-0.074675	-0.311407	-0.193246	-0.136516	-0.311407	-0.134433	-0.136516	-0.256453	-0.109226	-0.114495	-0.238135	-0.067211	-0.086972	-0.219817	-0.840181	-0.635145	-1.630072	0.000000	0.000000	23.709217	0.747698	-10.058914	12.543915	-4.683625	58.128596	43.704713	60.193890	9.807499	13.295980	6.464502	-25.807925	44.125748	56.411007	87.412816	15.226923	-4.367147
0.067797	1.556813	-6.628228	93.330119	0.253073	1.053531	0.387899	-6.123509	0.210805	4.895385	8.956895	0.156327	31.197189	-6.065469	0.000000	-7.792940	-2.393442	1.255082	3.388952	0.059148	35.740191	5.108795	0.000000	-0.117136	-0.071377	-0.372197	-0.217534	-0.094931	-0.395459	-0.192443	-0.173546	-0.395459	-0.133875	-0.173546	-0.325672	-0.108773	-0.145552	-0.302410	-0.066932	-0.110563	-0.279148	-0.836693	-0.807430	-2.070048	0.000000	0.000000	23.724068	1.000790	-10.005836	12.930525	-4.403749	58.965208	43.385076	59.614796	10.467764	13.603945	5.658600	-26.165277	43.198989	56.874173	86.524413	17.960449	-2.894339
0.084746	1.515831	-6.546796	93.433884	0.253098	1.053275	0.386857	-6.314352	0.228887	5.100123	8.884727	0.155068	30.990029	-6.720357	0.000000	-8.022341	-2.369024	1.493002	3.189506	0.055667	35.734995	5.055765	0.000000	-0.116129	-0.082622	-0.438090	-0.215663	-0.109887	-0.465471	-0.190788	-0.200887	-0.465471	-0.132724	-0.200887	-0.383329	-0.107837	-0.168483	-0.355948	-0.066356	-0.127981	-0.328567	-0.829496	-0.934636	-2.436525	0.000000	0.000000	23.748203	1.254554	-9.926296	13.336859	-4.205485	59.990077	43.122790	58.822567	10.930118	13.748259	4.872798	-26.393306	42.298396	57.243539	85.553975	20.181015	-1.668633
0.101695	1.479890	-6.474885	93.433092	0.252992	1.053046	0.385834	-6.452857	0.214227	5.287338	8.876123	0.154918	30.881494	-7.169524	0.000000	-8.242317	-2.318598	1.711666	3.033045	0.052937	35.670287	4.839054	0.000000	-0.114633	-0.090364	-0.491983	-0.212886	-0.120184	-0.522732	-0.188331	-0.219710	-0.522732	-0.131014	-0.219710	-0.430485	-0.106449	-0.184269	-0.399736	-0.065502	-0.139973	-0.368987	-0.818815	-1.022211	-2.736264	0.000000	0.000000	23.780988	1.497877	-9.831741	13.759115	-4.082011	61.168201	42.917996	57.844349	11.212954	13.748903	4.115285	-26.507665	41.421669	57.533388	84.515428	21.919916	-0.677725
0.118644	1.448698	-6.413903	93.345990	0.252771	1.052839	0.384855	-6.540847	0.172007	5.454498	8.925364	0.155777	30.859378	-7.437710	0.000000	-8.446093	-2.246897	1.910501	2.919537	0.050956	35.558796	4.488480	0.000000	-0.112682	-0.095083	-0.535093	-0.209261	-0.126461	-0.568536	-0.185125	-0.231186	-0.568536	-0.128784	-0.231186	-0.468206	-0.104636	-0.193894	-0.434763	-0.064386	-0.147284	-0.401320	-0.804874	-1.075603	-2.976027	0.000000	0.000000	23.821790	1.719648	-9.733617	14.193494	-4.026505	62.464579	42.770835	56.707287	11.334670	13.625856	3.394245	-26.524003	40.566509	57.758004	83.422697	23.208448	0.090692
0.135593	1.421967	-6.365262	93.190824	0.252450	1.052648	0.383943	-6.580149	0.107412	5.599071	9.026734	0.157546	30.911476	-7.549660	0.000000	-8.626891	-2.158654	2.088936	2.848953	0.049724	35.413251	4.033862	0.000000	-0.110305	-0.097263	-0.568635	-0.204848	-0.129360	-0.604175	-0.181220	-0.236486	-0.604175	-0.126068	-0.236486	-0.497556	-0.102429	-0.198339	-0.462016	-0.063028	-0.150661	-0.426476	-0.787899	-1.100262	-3.162577	0.000000	0.000000	23.869974	1.908755	-9.643370	14.636195	-4.032145	63.844208	42.681448	55.438527	11.313660	13.399099	2.717867	-26.457973	39.730615	57.931669	82.289710	24.077906	0.648922
0.152542	1.399403	-6.330372	92.985839	0.252043	1.052470	0.383124	-6.572587	0.025625	5.718527	9.174514	0.160125	31.025581	-7.530116	0.000000	-8.777936	-2.058604	2.246401	2.821263	0.049240	35.246382	3.505019	0.000000	-0.107535	-0.097385	-0.593825	-0.199704	-0.129522	-0.630939	-0.176670	-0.236781	-0.630939	-0.122902	-0.236781	-0.519597	-0.099857	-0.198587	-0.482483	-0.061446	-0.150849	-0.445369	-0.768114	-1.101636	-3.302677	0.000000	0.000000	23.924908	2.054086	-9.572449	15.083417	-4.092107	65.272087	42.649976	54.065214	11.168318	13.088611	2.094337	-26.325225	38.911687	58.068669	81.130392	24.559585	1.009271
0.169492	1.380717	-6.310644	92.749281	0.251568	1.052299	0.382422	-6.519989	-0.068171	5.810331	9.362987	0.163415	31.189488	-7.403821	0.000000	-8.892449	-1.951477	2.382324	2.836437	0.049505	35.070919	2.931768	0.000000	-0.104404	-0.095929	-0.611879	-0.193888	-0.127586	-0.650121	-0.171525	-0.233243	-0.650121	-0.119323	-0.233243	-0.535394	-0.096949	-0.195619	-0.497152	-0.059656	-0.148595	-0.458909	-0.745744	-1.085173	-3.403087	0.000000	0.000000	23.985956	2.144531	-9.532299	15.531360	-4.199571	66.713215	42.676559	52.614495	10.917041	12.714373	1.531840	-26.141411	38.107426	58.183286	79.958670	24.684781	1.184045
0.186441	1.342347	-6.305079	92.556227	0.251055	1.052143	0.381962	-6.427640	-0.190499	5.686839	9.602459	0.167595	31.342781	-7.160727	0.000000	-8.939955	-1.834087	2.488667	2.918918	0.050945	34.938579	2.429999	0.000000	-0.101690	-0.097576	-0.622694	-0.188849	-0.129776	-0.661613	-0.167067	-0.237246	-0.661613	-0.116222	-0.237246	-0.544858	-0.094430	-0.198977	-0.505939	-0.058106	-0.151145	-0.467021	-0.726365	-1.103799	-3.463240	0.000000	0.000000	24.023832	2.050197	-9.666519	15.945744	-4.322634	68.103139	42.722276	50.956893	10.590984	12.362013	1.099252	-25.975805	37.386538	58.353815	78.729701	24.441012	1.218933
0.203390	1.319167	-6.332025	92.374188	0.250466	1.051957	0.381693	-6.274292	-0.291514	5.681041	9.877047	0.172387	31.510559	-7.005457	0.000000	-8.915715	-1.727768	2.580643	3.048748	0.053211	34.825409	1.937233	0.000000	-0.097244	-0.096290	-0.634095	-0.180592	-0.128065	-0.673726	-0.159762	-0.234118	-0.673726	-0.111140	-0.234118	-0.554833	-0.090301	-0.196354	-0.515202	-0.055565	-0.149153	-0.475571	-0.694604	-1.089247	-3.526647	0.000000	0.000000	24.098202	1.871539	-9.813680	16.322254	-4.492011	69.450869	42.889517	49.362504	10.199108	11.980450	0.726792	-25.775220	36.554939	58.552001	77.533362	23.857216	0.982946
0.220339	1.296550	-6.375805	92.226618	0.249871	1.051761	0.381642	-6.083122	-0.400709	5.541145	10.169607	0.177493	31.737562	-6.635827	0.000000	-8.853554	-1.611755	2.952554	3.176509	0.055441	34.660253	1.131979	0.000000	-0.092894	-0.095250	-0.642699	-0.172513	-0.126682	-0.682868	-0.152615	-0.231591	-0.682868	-0.106168	-0.231591	-0.562362	-0.086261	-0.194234	-0.522193	-0.053079	-0.147542	-0.482024	-0.663531	-1.077485	-3.574500	0.000000	0.000000	24.156174	1.582566	-10.011799	16.725432	-4.678228	70.953321	43.088929	47.263388	9.783309	11.415543	0.530257	-25.639643	35.906730	58.768199	76.616402	22.791026	0.255894
0.237288	1.271661	-6.445173	92.166605	0.249233	1.051528	0.381804	-5.863060	-0.493123	5.419786	10.450280	0.182392	31.963608	-6.356120	0.000000	-8.716660	-1.516404	3.179352	3.346409	0.058406	34.566675	0.623073	0.000000	-0.087919	-0.095641	-0.656666	-0.163274	-0.127202	-0.697708	-0.144442	-0.232541	-0.697708	-0.100482	-0.232541	-0.574583	-0.081641	-0.195030	-0.533541	-0.050237	-0.148147	-0.492500	-0.627994	-1.081906	-3.652180	0.000000	0.000000	24.244602	1.261230	-10.251563	17.083252	-4.848935	72.264328	43.289583	45.256197	9.398426	10.857767	0.421314	-25.499706	35.151020	59.044694	75.681171	21.799938	-0.325904
0.254237	1.283760	-6.539805	92.139812	0.248597	1.051261	0.382232	-5.596187	-0.534903	5.364727	10.736177	0.187382	32.176966	-6.162510	0.000000	-8.498414	-1.471912	3.278243	3.580316	0.062488	34.558446	0.299104	0.000000	-0.083131	-0.091745	-0.671702	-0.154383	-0.122021	-0.713684	-0.136576	-0.223069	-0.713684	-0.095011	-0.223069	-0.587740	-0.077196	-0.187087	-0.545758	-0.047501	-0.142113	-0.503777	-0.593797	-1.037839	-3.735807	0.000000	0.000000	24.367110	0.909747	-10.471119	17.555446	-5.037071	73.693876	43.457697	42.701347	8.821935	10.335998	0.370878	-25.326327	34.341750	59.369668	74.558290	20.746925	-0.834335
